<?xml version="1.0" encoding="utf-8"?>
<!-- Generator: Adobe Illustrator 26.0.2, SVG Export Plug-In . SVG Version: 6.00 Build 0)  -->
<svg version="1.1" id="Layer_1" xmlns="http://www.w3.org/2000/svg" xmlns:xlink="http://www.w3.org/1999/xlink" x="0px" y="0px"
	 viewBox="0 0 4096 4096" style="enable-background:new 0 0 4096 4096;" xml:space="preserve">
<style type="text/css">
	.st0{fill:#FCA311;}
	.st1{fill:#FFFFFF;}
</style>
<g>
	<path class="st0" d="M1536.7,2712.8c-4.3-1.2-8.6-0.6-12.9-0.6c-320.3,0-640.6,0-960.9,0c-73,0-139.4-20.8-198.1-64
		c-73.4-54.1-117.8-126.4-133.2-216.4c-2.9-16.8-4-33.7-4-50.7c0-611.3,0.2-1222.5-0.1-1833.8c-0.1-151.5,108-290.5,262.9-323.6
		c23.2-5,46.6-7.4,70.4-7.4c536.3,0.1,1072.5,0.2,1608.8-0.1c158-0.1,296,113,326.7,267.9c4.7,23.6,7.1,47.4,7.1,71.5
		c0,595.6,0,1191.2,0,1786.8c0,5-0.8,10,0.9,14.9c3.4,3.7-0.9,5.3-2.4,6.8c-29.3,29.7-58.8,59-88.2,88.5c-5.8,5.8-10.6,5.3-16.1-0.3
		c-13.6-13.7-27.3-27.4-41-41c-37.7-37.7-75.3-75.5-113.1-113.1c-30.2-30-65.6-51.3-107.6-60c-53.7-11.1-104-3.3-148.8,30.1
		c-10.6,8-19.5,18.1-28.9,27.5c-137,137.3-274.1,274.4-411.3,411.4C1544.3,2710,1542.2,2714.7,1536.7,2712.8z"/>
	<path d="M1536.7,2712.8c2.4-2.2,4.9-4.4,7.3-6.7c140.9-140.9,281.8-281.8,422.6-422.8c38.1-38.1,84.2-54.8,137.6-51.8
		c55.1,3.1,101.4,25.9,140.2,64.3c51.1,50.7,101.8,101.7,152.8,152.6c2.6,2.6,4.7,5.6,7.6,7c33.3-32.9,66.5-65.5,99.7-98.2
		c2.6-2.5,5.3-5,7.9-7.6c340.5-340.6,681-681.2,1021.5-1021.8c9.4-9.4,9.4-9.4,18.5-0.2c123.7,123.7,247.4,247.5,371.2,371.2
		c2.3,2.3,5,4.3,6.6,5.7c-65,64.9-129.2,129.1-193.4,193.2c-59.9-60-121.3-121.4-182.1-182.2c-77.1,77.1-153.2,153.2-229,229
		c60.5,60.5,122,122,182.7,182.7c-61.3,61.2-121.3,121.2-181.7,181.5c-60.4-60.5-121.9-121.9-182.7-182.8
		c-76.7,76.7-152.8,152.8-229,229c60.8,60.8,122.2,122.2,184.3,184.3c-102.4,102.4-203.9,203.9-306.9,306.9c3.3,2.5,6.6,4.4,9.1,7
		c49.8,49.7,99.5,99.4,149.2,149.1c29.6,29.6,50.7,64.4,60,105.3c13.1,57.2,4.7,110.5-32.2,157.7c-5.3,6.9-11.5,12.9-17.7,19
		c-207.4,207.4-414.9,414.7-622,622.3c-58,58.1-125.5,69.5-201.2,44c-32.1-10.8-59.2-29.9-83.1-53.9
		c-79.1-79.3-158.3-158.4-237.5-237.6C1662.2,3504.1,1507.2,3349,1352,3194c-29.1-29.1-50.4-62.7-60.7-102.8
		c-14.6-57.4-6.9-110.9,28.8-159.3c5.4-7.3,11.7-13.7,18.1-20c63.6-63.6,127.3-127.3,190.9-190.9
		C1531.8,2718.3,1534.2,2715.5,1536.7,2712.8z"/>
	<path class="st1" d="M1952.4,1233.1c0,146.6-0.1,293.3,0,439.9c0,46.3-13.6,88.1-42.3,124.3c-38.6,48.7-89.3,74.5-151.7,77
		c-3.3,0.1-6.7,0.1-10,0.1c-243.6,0-487.2-0.1-730.9,0.1c-45.9,0-87.5-12.8-123.8-40.8c-45.9-35.3-72-82-78.2-139.7
		c-1-9.6-1.3-19.3-1.3-28.9c0-289.9,0-579.9,0-869.8c0-52.4,16-99,51.3-138.1c39.9-44.1,90-66.8,149.5-66.9
		c245.6-0.3,491.2-0.2,736.8-0.1c97.2,0.1,179.9,68.9,197.5,164.2c2.4,13.1,3,26.4,3,39.8C1952.4,940.5,1952.4,1086.8,1952.4,1233.1
		z"/>
	<path class="st1" d="M1089.6,2461.8c-47,0-94,0.3-141-0.1c-44.5-0.4-80.6-18.5-107.6-53.8c-17.6-23-26.4-49.4-26.5-78.1
		c-0.4-71-0.6-142,0-213c0.5-65.1,48.5-120.1,112.3-130.3c7.5-1.2,15.3-1.8,22.9-1.8c93.3-0.1,186.6-0.3,280,0
		c63.5,0.2,115.7,41,131.2,101.5c2.7,10.4,3.7,21,3.7,31.7c0,70.3-0.3,140.7,0.1,211c0.4,69.9-57,132.9-134.1,133
		C1183.5,2461.8,1136.6,2461.8,1089.6,2461.8z"/>
	<path class="st1" d="M2099.8,3378.3c-127.1,0.3-231.1-104.7-230.2-232.1c0.9-127.2,104.5-230.4,231.7-229.9
		c127.2,0.5,230.6,104.3,230.4,231.4C2331.5,3275.4,2227.7,3378.6,2099.8,3378.3z"/>
</g>
</svg>
